<svg width="76" height="98" viewBox="0 0 76 98" fill="none" xmlns="http://www.w3.org/2000/svg">
<path d="M11.544 90.872C10.776 80.376 10.136 69.9227 9.624 59.512C9.112 49.0587 8.728 38.648 8.472 28.28C8.42933 26.0187 8.856 24.248 9.752 22.968C10.648 21.6453 12.1413 20.984 14.232 20.984C16.3653 20.984 17.816 21.5813 18.584 22.776C19.3947 23.9707 19.8213 25.7627 19.864 28.152C19.9493 29.56 19.9493 31.0533 19.864 32.632C19.7787 34.168 19.736 35.832 19.736 37.624C19.736 39.0747 20.2267 39.992 21.208 40.376C22.232 40.76 23.32 40.312 24.472 39.032C29.0373 33.9973 33.5173 28.792 37.912 23.416C42.3067 18.04 46.6373 12.9413 50.904 8.12C52.8667 5.944 54.872 4.34399 56.92 3.31999C58.968 2.296 60.952 1.784 62.872 1.784C65.048 1.784 67.0747 2.38133 68.952 3.576C70.8293 4.72799 72.3227 6.24266 73.432 8.12C74.584 9.99733 75.16 11.96 75.16 14.008C75.16 16.184 74.5413 18.36 73.304 20.536C72.1093 22.6693 70.4027 24.6747 68.184 26.552C63.9173 30.1787 59.9493 33.336 56.28 36.024C52.6107 38.712 48.8773 41.72 45.08 45.048C43.288 46.584 42.2853 48.248 42.072 50.04C41.8587 51.832 42.52 53.6667 44.056 55.544C48.5787 60.9627 52.2907 65.4853 55.192 69.112C58.0933 72.7387 60.376 75.6827 62.04 77.944C63.7467 80.1627 64.984 81.9333 65.752 83.256C66.5627 84.5787 67.0747 85.624 67.288 86.392C67.5013 87.16 67.608 87.8853 67.608 88.568C67.608 90.36 67.0533 91.8107 65.944 92.92C64.8347 94.0293 63.384 94.584 61.592 94.584C60.3547 94.584 59.1387 94.2427 57.944 93.56C56.7493 92.8773 55.2987 91.512 53.592 89.464C51.928 87.3733 49.7733 84.2373 47.128 80.056C44.4827 75.8747 41.0693 70.3067 36.888 63.352C35.352 60.7067 33.9013 58.8933 32.536 57.912C31.2133 56.9307 29.5493 56.44 27.544 56.44C25.368 56.44 23.6827 57.1227 22.488 58.488C21.336 59.8533 20.76 61.9867 20.76 64.888C20.76 68.5147 20.888 72.6533 21.144 77.304C21.4 81.9547 21.528 86.4347 21.528 90.744C21.528 92.792 21.208 94.4987 20.568 95.864C19.928 97.2293 18.6693 97.912 16.792 97.912C15.128 97.912 13.8693 97.272 13.016 95.992C12.1627 94.7547 11.672 93.048 11.544 90.872ZM62.488 61.048C60.44 61.048 58.7547 60.472 57.432 59.32C56.1093 58.168 55.448 56.184 55.448 53.368C55.448 51.448 56.1307 49.9547 57.496 48.888C58.8613 47.7787 60.5253 47.224 62.488 47.224C64.536 47.224 66.1787 47.9067 67.416 49.272C68.6533 50.5947 69.272 52.3867 69.272 54.648C69.272 56.3547 68.632 57.848 67.352 59.128C66.1147 60.408 64.4933 61.048 62.488 61.048ZM60.888 2.99999C61.016 3.12799 61.144 3.25599 61.272 3.384C61.4 3.512 61.528 3.64 61.656 3.768C61.9973 4.06666 62.0613 4.42933 61.848 4.856C61.6773 5.28266 61.4 5.73066 61.016 6.2C60.5893 6.62666 60.1413 6.94666 59.672 7.16C59.2027 7.37333 58.84 7.35199 58.584 7.09599C58.456 6.968 58.3493 6.86133 58.264 6.77599C58.1787 6.69066 58.072 6.58399 57.944 6.45599C57.56 6.072 57.432 5.624 57.56 5.112C57.688 4.55733 57.944 4.06667 58.328 3.64C58.712 3.256 59.16 2.99999 59.672 2.87199C60.2267 2.70133 60.632 2.744 60.888 2.99999ZM53.592 9.016L51.416 11.96C51.16 11.704 51.0533 11.4267 51.096 11.128C51.1813 10.7867 51.416 10.3387 51.8 9.784C52.2693 9.272 52.6107 8.99466 52.824 8.952C53.08 8.86666 53.336 8.888 53.592 9.016ZM6.04 66.552C9.112 66.168 12.2693 65.848 15.512 65.592C18.7547 65.2933 22.04 65.0587 25.368 64.888C27.5013 64.76 29.1653 64.9947 30.36 65.592C31.5547 66.1467 32.152 67.32 32.152 69.112C32.152 70.776 31.6187 71.928 30.552 72.568C29.528 73.1653 28.1413 73.592 26.392 73.848C23.1493 74.2747 19.864 74.616 16.536 74.872C13.2507 75.0853 9.96533 75.256 6.68 75.384C4.76 75.4267 3.16 75.1493 1.88 74.552C0.642667 73.912 0.024 72.7387 0.024 71.032C0.024 69.624 0.536 68.6 1.56 67.96C2.62667 67.2773 4.12 66.808 6.04 66.552ZM14.36 16.76C11.2453 16.76 8.94133 16.12 7.448 14.84C5.99733 13.56 5.272 11.6827 5.272 9.20799C5.272 6.26399 6.06133 4.10933 7.64 2.744C9.21867 1.336 11.288 0.631996 13.848 0.631996C16.28 0.631996 18.136 1.4 19.416 2.936C20.7387 4.472 21.4 6.43466 21.4 8.824C21.4 11.2987 20.76 13.24 19.48 14.648C18.2427 16.056 16.536 16.76 14.36 16.76ZM47.896 33.016C49.6453 33.016 50.968 32.5893 51.864 31.736C52.8027 30.84 53.272 29.8587 53.272 28.792C53.272 26.872 52.8667 25.464 52.056 24.568C51.288 23.6293 50.072 23.16 48.408 23.16C46.9573 23.16 45.7627 23.608 44.824 24.504C43.8853 25.4 43.416 26.616 43.416 28.152C43.416 29.816 43.8427 31.0533 44.696 31.864C45.5493 32.632 46.616 33.016 47.896 33.016ZM60.504 22.968C62.552 22.968 64.1093 22.4133 65.176 21.304C66.2427 20.1947 66.776 18.6587 66.776 16.696C66.776 14.904 66.1787 13.368 64.984 12.088C63.832 10.808 62.424 10.168 60.76 10.168C58.7973 10.168 57.176 10.7013 55.896 11.768C54.616 12.792 53.976 14.0507 53.976 15.544C53.976 17.8907 54.5093 19.7253 55.576 21.048C56.6853 22.328 58.328 22.968 60.504 22.968Z" fill="url(#paint0_linear_1_3)"/>
<defs>
<linearGradient id="paint0_linear_1_3" x1="70" y1="4" x2="5.5" y2="91" gradientUnits="userSpaceOnUse">
<stop stop-color="#716FFF"/>
<stop offset="0.599773" stop-color="#A17ABF"/>
<stop offset="1" stop-color="#870099"/>
</linearGradient>
</defs>
</svg>
